<?xml version="1.0" encoding="utf-8"?>
<!-- Generator: Adobe Illustrator 15.0.0, SVG Export Plug-In . SVG Version: 6.00 Build 0)  -->
<!DOCTYPE svg PUBLIC "-//W3C//DTD SVG 1.1//EN" "http://www.w3.org/Graphics/SVG/1.1/DTD/svg11.dtd">
<svg version="1.1" id="Layer_1" xmlns="http://www.w3.org/2000/svg" xmlns:xlink="http://www.w3.org/1999/xlink" x="0px" y="0px"
	 width="522px" height="198px" viewBox="0 0 522 198" enable-background="new 0 0 522 198" xml:space="preserve">
<g>
	<defs>
		<rect id="SVGID_1_" width="522" height="198"/>
	</defs>
	<clipPath id="SVGID_2_">
		<use xlink:href="#SVGID_1_"  overflow="visible"/>
	</clipPath>
	<path clip-path="url(#SVGID_2_)" fill="#FFFFFF" d="M261.903,124.487c17.992-16.699,23.896-42.72,14.152-68.514
		c-12.415-32.868-48.431-49.428-80.442-36.998c-13.219,5.128-24.07,15.081-30.933,26.506l2.656,4.525
		c5.15-8.191,13.594-17.357,23.185-21.075c24.008-9.328,51.023,3.094,60.335,27.744c7.966,21.099-1.371,47.182-19.85,58.326
		c0,0-0.939,0.705-3.342,1.681C227.665,116.682,255.709,130.236,261.903,124.487"/>
	<path clip-path="url(#SVGID_2_)" fill="none" stroke="#FFFFFF" stroke-width="4.374" stroke-miterlimit="10" d="M261.903,124.487
		c17.992-16.699,23.896-42.72,14.152-68.514c-12.415-32.868-48.431-49.428-80.442-36.998c-13.219,5.128-24.07,15.081-30.933,26.506
		l2.656,4.525c5.15-8.191,13.594-17.357,23.185-21.075c24.008-9.328,51.023,3.094,60.335,27.744
		c7.966,21.099-1.371,47.182-19.85,58.326c0,0-0.939,0.705-3.342,1.681C227.665,116.682,255.709,130.236,261.903,124.487z"/>
	<path clip-path="url(#SVGID_2_)" fill="#FFC425" d="M261.903,124.487c17.992-16.699,23.896-42.72,14.152-68.514
		c-12.415-32.868-48.431-49.428-80.442-36.998c-13.219,5.128-24.07,15.081-30.933,26.506l2.656,4.525
		c5.15-8.191,13.594-17.357,23.185-21.075c24.008-9.328,51.023,3.094,60.335,27.744c7.966,21.099-1.371,47.182-19.85,58.326
		c0,0-0.939,0.705-3.342,1.681C227.665,116.682,255.709,130.236,261.903,124.487"/>
	<path clip-path="url(#SVGID_2_)" fill="#FFFFFF" d="M283.629,15.119c8.141-1.386,19.565-2.424,35.669-2.424
		c16.278,0,28.05,3.118,35.844,9.524c7.441,5.713,12.291,15.408,12.291,26.838c0,11.598-3.638,21.294-10.564,27.701
		c-9.002,8.31-22.506,12.293-38.088,12.293c-3.465,0-6.581-0.174-9.005-0.693v41.9h-26.146V15.119z M309.775,68.1
		c2.252,0.522,5.021,0.692,8.831,0.692c14.021,0,22.68-7.097,22.68-18.871c0-10.734-7.271-17.139-20.602-17.139
		c-5.369,0-9.005,0.344-10.909,0.864V68.1z"/>
	<path clip-path="url(#SVGID_2_)" fill="none" stroke="#FFFFFF" stroke-width="4.374" stroke-miterlimit="10" d="M283.629,15.119
		c8.141-1.386,19.565-2.424,35.669-2.424c16.278,0,28.05,3.118,35.844,9.524c7.441,5.713,12.291,15.408,12.291,26.838
		c0,11.598-3.638,21.294-10.564,27.701c-9.002,8.31-22.506,12.293-38.088,12.293c-3.465,0-6.581-0.174-9.005-0.693v41.9h-26.146
		V15.119z M309.775,68.1c2.252,0.522,5.021,0.692,8.831,0.692c14.021,0,22.68-7.097,22.68-18.871
		c0-10.734-7.271-17.139-20.602-17.139c-5.369,0-9.005,0.344-10.909,0.864V68.1z"/>
	<polygon clip-path="url(#SVGID_2_)" fill="#FFFFFF" points="443.143,80.915 400.204,80.915 400.204,108.616 448.162,108.616 
		448.162,130.259 373.885,130.259 373.885,13.562 445.739,13.562 445.739,35.205 400.204,35.205 400.204,59.443 443.143,59.443 	"/>
	<polygon clip-path="url(#SVGID_2_)" fill="none" stroke="#FFFFFF" stroke-width="4.374" stroke-miterlimit="10" points="
		443.143,80.915 400.204,80.915 400.204,108.616 448.162,108.616 448.162,130.259 373.885,130.259 373.885,13.562 445.739,13.562 
		445.739,35.205 400.204,35.205 400.204,59.443 443.143,59.443 	"/>
	<path clip-path="url(#SVGID_2_)" fill="#FFFFFF" d="M90.385,13.561v45.018h43.459V13.561h26.318v116.698h-26.318V81.606H90.385
		v48.652H64.067V13.561H90.385z M90.385,81.606v48.652H64.067V13.561h26.318v45.018"/>
	<path clip-path="url(#SVGID_2_)" fill="none" stroke="#FFFFFF" stroke-width="4.374" stroke-miterlimit="10" d="M90.385,13.561
		v45.018h43.459V13.561h26.318v116.698h-26.318V81.606H90.385v48.652H64.067V13.561H90.385z M90.385,81.606v48.652H64.067V13.561
		h26.318v45.018"/>
	<path clip-path="url(#SVGID_2_)" fill="#FFFFFF" d="M90.385,81.606v48.652H64.067V13.561h26.318v45.018 M90.385,81.606v48.652
		H64.067V13.561h26.318v45.018V81.606z"/>
	<path clip-path="url(#SVGID_2_)" fill="none" stroke="#FFFFFF" stroke-width="4.374" stroke-miterlimit="10" d="M90.385,81.606
		v48.652H64.067V13.561h26.318v45.018 M90.385,81.606v48.652H64.067V13.561h26.318v45.018V81.606z"/>
	<path clip-path="url(#SVGID_2_)" fill="#FFFFFF" d="M283.629,15.119c8.141-1.386,19.565-2.424,35.669-2.424
		c16.278,0,28.05,3.118,35.844,9.524c7.441,5.713,12.291,15.408,12.291,26.838c0,11.598-3.638,21.294-10.564,27.701
		c-9.002,8.31-22.506,12.293-38.088,12.293c-3.465,0-6.581-0.174-9.005-0.693 M309.775,68.1c2.252,0.522,5.021,0.692,8.831,0.692
		c14.021,0,22.68-7.097,22.68-18.871c0-10.734-7.271-17.139-20.602-17.139c-5.369,0-9.005,0.344-10.909,0.864V68.1z"/>
	<path clip-path="url(#SVGID_2_)" fill="none" stroke="#FFFFFF" stroke-width="4.374" stroke-miterlimit="10" d="M283.629,15.119
		c8.141-1.386,19.565-2.424,35.669-2.424c16.278,0,28.05,3.118,35.844,9.524c7.441,5.713,12.291,15.408,12.291,26.838
		c0,11.598-3.638,21.294-10.564,27.701c-9.002,8.31-22.506,12.293-38.088,12.293c-3.465,0-6.581-0.174-9.005-0.693 M309.775,68.1
		c2.252,0.522,5.021,0.692,8.831,0.692c14.021,0,22.68-7.097,22.68-18.871c0-10.734-7.271-17.139-20.602-17.139
		c-5.369,0-9.005,0.344-10.909,0.864V68.1z"/>
	<path clip-path="url(#SVGID_2_)" fill="#010101" d="M283.629,15.119c8.141-1.386,19.565-2.424,35.669-2.424
		c16.278,0,28.05,3.118,35.844,9.524c7.441,5.713,12.291,15.408,12.291,26.838c0,11.598-3.638,21.294-10.564,27.701
		c-9.002,8.31-22.506,12.293-38.088,12.293c-3.465,0-6.581-0.174-9.005-0.693v41.9h-26.146V15.119z M309.775,68.1
		c2.252,0.522,5.021,0.692,8.831,0.692c14.021,0,22.68-7.097,22.68-18.871c0-10.734-7.271-17.139-20.602-17.139
		c-5.369,0-9.005,0.344-10.909,0.864V68.1z"/>
	<polygon clip-path="url(#SVGID_2_)" fill="#010101" points="443.143,80.915 400.204,80.915 400.204,108.616 448.162,108.616 
		448.162,130.259 373.885,130.259 373.885,13.562 445.739,13.562 445.739,35.205 400.204,35.205 400.204,59.443 443.143,59.443 	"/>
	<path clip-path="url(#SVGID_2_)" fill="#010101" d="M90.385,13.561v45.018h43.459V13.561h26.318v116.698h-26.318V81.606H90.385
		v48.652H64.067V13.561H90.385z M90.385,81.606v48.652H64.067V13.561h26.318v45.018"/>
	<path clip-path="url(#SVGID_2_)" fill="#FFFFFF" d="M446.554,119.94c-2.888-2.422-7.28-6.336-13.798-12.615
		c0,0-37.699-36.075-88.13-19.356c0,0,37.328-8.12,66.029,11.899c0,0,17.376,13.806,35.369,23.99L446.554,119.94z"/>
	
		<path clip-path="url(#SVGID_2_)" fill="none" stroke="#FFFFFF" stroke-width="4.113" stroke-linecap="square" stroke-linejoin="bevel" d="
		M446.554,119.94c-2.888-2.422-7.28-6.336-13.798-12.615c0,0-37.699-36.075-88.13-19.356c0,0,37.328-8.12,66.029,11.899
		c0,0,17.376,13.806,35.369,23.99L446.554,119.94z"/>
	<path clip-path="url(#SVGID_2_)" fill="#FFFFFF" d="M17.339,125.78c0,0-17.347-66.33,82.967-63.633
		c0,0,47.718,0.179,108.903,47.675c0,0,14.869,13.27,30.191,14.921c0,0-12.756-2.889-40.077-27.493c0,0-58.852-56.677-118.646-43.49
		C80.677,53.76,5.755,63.829,17.339,125.78"/>
	
		<path clip-path="url(#SVGID_2_)" fill="none" stroke="#FFFFFF" stroke-width="4.113" stroke-linecap="square" stroke-linejoin="bevel" d="
		M17.339,125.78c0,0-17.347-66.33,82.967-63.633c0,0,47.718,0.179,108.903,47.675c0,0,14.869,13.27,30.191,14.921
		c0,0-12.756-2.889-40.077-27.493c0,0-58.852-56.677-118.646-43.49C80.677,53.76,5.755,63.829,17.339,125.78"/>
	<path clip-path="url(#SVGID_2_)" fill="#FFFFFF" d="M222.512,119.023c0,0,32.111,19.671,81.09,0.368
		c0,0,81.636-39.437,103.558-27.887c0,0-24.072-14.883-59.614-6.286c0,0-18.216,4.787-39.398,14.845c0,0-32.275,14.649-49.343,19.27
		C258.804,119.334,241.324,126.21,222.512,119.023"/>
	
		<path clip-path="url(#SVGID_2_)" fill="none" stroke="#FFFFFF" stroke-width="4.113" stroke-linecap="square" stroke-linejoin="bevel" d="
		M222.512,119.023c0,0,32.111,19.671,81.09,0.368c0,0,81.636-39.437,103.558-27.887c0,0-24.072-14.883-59.614-6.286
		c0,0-18.216,4.787-39.398,14.845c0,0-32.275,14.649-49.343,19.27C258.804,119.334,241.324,126.21,222.512,119.023"/>
	<path clip-path="url(#SVGID_2_)" fill="#0078AE" d="M446.096,119.555c-2.888-2.444-7.158-6.273-13.34-12.229
		c0,0-37.699-36.075-88.13-19.357c0,0,37.329-8.119,66.028,11.9c0,0,16.992,13.5,34.77,23.65L446.096,119.555z"/>
	<path clip-path="url(#SVGID_2_)" fill="#0078AE" d="M17.339,125.78c0,0-17.347-66.33,82.967-63.633
		c0,0,47.718,0.179,108.903,47.675c0,0,14.869,13.27,30.191,14.921c0,0-12.756-2.889-40.077-27.493c0,0-58.852-56.677-118.646-43.49
		C80.677,53.76,5.755,63.829,17.339,125.78"/>
	<path clip-path="url(#SVGID_2_)" fill="#0078AE" d="M221.017,119.023c0,0,33.607,19.671,82.585,0.368
		c0,0,82.506-39.971,104.428-28.419c0,0-24.94-14.35-60.483-5.753c0,0-18.215,4.787-39.398,14.845c0,0-32.274,14.649-49.344,19.27
		c0,0-18.32,7.051-37.133-0.136"/>
	<path clip-path="url(#SVGID_2_)" fill="none" stroke="#FFFFFF" stroke-width="1.048" stroke-miterlimit="10" d="M221.017,119.023
		c0,0,33.607,19.671,82.585,0.368c0,0,82.506-39.971,104.428-28.419c0,0-24.94-14.35-60.483-5.753c0,0-18.215,4.787-39.398,14.845
		c0,0-32.274,14.649-49.344,19.27c0,0-18.32,7.051-37.133-0.136"/>
	<path clip-path="url(#SVGID_2_)" fill="#010101" d="M90.385,81.606v48.652H64.067V13.561h26.318v45.018 M90.385,81.606v48.652
		H64.067V13.561h26.318v45.018V81.606z"/>
	<path clip-path="url(#SVGID_2_)" fill="#FFFFFF" d="M262.94,123.781c0-3.687,2.563-6.33,6.09-6.33c3.605,0,6.088,2.563,6.088,6.33
		c0,3.605-2.404,6.329-6.167,6.329C265.425,130.11,262.94,127.387,262.94,123.781"/>
	<path clip-path="url(#SVGID_2_)" fill="none" stroke="#FFFFFF" stroke-width="4.347" stroke-miterlimit="10" d="M262.94,123.781
		c0-3.687,2.563-6.33,6.09-6.33c3.605,0,6.088,2.563,6.088,6.33c0,3.605-2.404,6.329-6.167,6.329
		C265.425,130.11,262.94,127.387,262.94,123.781z"/>
	<path clip-path="url(#SVGID_2_)" fill="#7E8083" d="M262.94,123.781c0-3.687,2.563-6.33,6.09-6.33c3.605,0,6.088,2.563,6.088,6.33
		c0,3.605-2.404,6.329-6.167,6.329C265.425,130.11,262.94,127.387,262.94,123.781"/>
	<path clip-path="url(#SVGID_2_)" fill="#FFFFFF" d="M164.283,123.781c0-3.687,2.565-6.33,6.09-6.33c3.606,0,6.088,2.563,6.088,6.33
		c0,3.605-2.404,6.329-6.167,6.329C166.768,130.11,164.283,127.387,164.283,123.781"/>
	<path clip-path="url(#SVGID_2_)" fill="none" stroke="#FFFFFF" stroke-width="4.347" stroke-miterlimit="10" d="M164.283,123.781
		c0-3.687,2.565-6.33,6.09-6.33c3.606,0,6.088,2.563,6.088,6.33c0,3.605-2.404,6.329-6.167,6.329
		C166.768,130.11,164.283,127.387,164.283,123.781z"/>
	<path clip-path="url(#SVGID_2_)" fill="#7E8083" d="M164.283,123.781c0-3.687,2.565-6.33,6.09-6.33c3.606,0,6.088,2.563,6.088,6.33
		c0,3.605-2.404,6.329-6.167,6.329C166.768,130.11,164.283,127.387,164.283,123.781"/>
	<path clip-path="url(#SVGID_2_)" fill="#FFFFFF" d="M312.514,123.781c0-3.687,2.563-6.33,6.09-6.33c3.606,0,6.087,2.563,6.087,6.33
		c0,3.605-2.401,6.329-6.166,6.329C314.999,130.11,312.514,127.387,312.514,123.781"/>
	<path clip-path="url(#SVGID_2_)" fill="none" stroke="#FFFFFF" stroke-width="4.347" stroke-miterlimit="10" d="M312.514,123.781
		c0-3.687,2.563-6.33,6.09-6.33c3.606,0,6.087,2.563,6.087,6.33c0,3.605-2.401,6.329-6.166,6.329
		C314.999,130.11,312.514,127.387,312.514,123.781z"/>
	<path clip-path="url(#SVGID_2_)" fill="#7E8083" d="M312.514,123.781c0-3.687,2.563-6.33,6.09-6.33c3.606,0,6.087,2.563,6.087,6.33
		c0,3.605-2.401,6.329-6.166,6.329C314.999,130.11,312.514,127.387,312.514,123.781"/>
	<path clip-path="url(#SVGID_2_)" fill="#FFFFFF" d="M451.752,123.781c0-3.687,2.564-6.33,6.09-6.33c3.607,0,6.089,2.563,6.089,6.33
		c0,3.605-2.403,6.329-6.166,6.329C454.237,130.11,451.752,127.387,451.752,123.781"/>
	<path clip-path="url(#SVGID_2_)" fill="none" stroke="#FFFFFF" stroke-width="4.347" stroke-miterlimit="10" d="M451.752,123.781
		c0-3.687,2.564-6.33,6.09-6.33c3.607,0,6.089,2.563,6.089,6.33c0,3.605-2.403,6.329-6.166,6.329
		C454.237,130.11,451.752,127.387,451.752,123.781z"/>
	<path clip-path="url(#SVGID_2_)" fill="#7E8083" d="M451.752,123.781c0-3.687,2.564-6.33,6.09-6.33c3.607,0,6.089,2.563,6.089,6.33
		c0,3.605-2.403,6.329-6.166,6.329C454.237,130.11,451.752,127.387,451.752,123.781"/>
	<path clip-path="url(#SVGID_2_)" fill="#010101" d="M283.629,15.119c8.141-1.386,19.565-2.424,35.669-2.424
		c16.278,0,28.05,3.118,35.844,9.524c7.441,5.713,12.291,15.408,12.291,26.838c0,11.598-3.638,21.294-10.564,27.701
		c-9.002,8.31-22.506,12.293-38.088,12.293c-3.465,0-6.581-0.174-9.005-0.693 M309.775,68.1c2.252,0.522,5.021,0.692,8.831,0.692
		c14.021,0,22.68-7.097,22.68-18.871c0-10.734-7.271-17.139-20.602-17.139c-5.369,0-9.005,0.344-10.909,0.864V68.1z"/>
	<polyline clip-path="url(#SVGID_2_)" fill="#010101" points="400.204,108.616 448.163,108.616 448.163,130.259 373.885,130.259 	
		"/>
	<polygon clip-path="url(#SVGID_2_)" fill="#FFFFFF" points="473.133,122.013 473.133,130.458 466.999,130.458 466.999,106.422 
		473.133,106.422 473.133,114.96 499.288,114.96 499.288,122.013 	"/>
	<polygon clip-path="url(#SVGID_2_)" fill="none" stroke="#FFFFFF" stroke-width="4.374" stroke-miterlimit="10" points="
		473.133,122.013 473.133,130.458 466.999,130.458 466.999,106.422 473.133,106.422 473.133,114.96 499.288,114.96 499.288,122.013 
			"/>
	<polygon clip-path="url(#SVGID_2_)" fill="#FFFFFF" points="485.636,84.062 485.636,95.568 493.299,95.568 493.299,82.715 
		499.289,82.715 499.289,102.621 467,102.621 467,83.366 472.988,83.366 472.988,95.568 479.695,95.568 479.695,84.062 	"/>
	<polygon clip-path="url(#SVGID_2_)" fill="none" stroke="#FFFFFF" stroke-width="4.374" stroke-miterlimit="10" points="
		485.636,84.062 485.636,95.568 493.299,95.568 493.299,82.715 499.289,82.715 499.289,102.621 467,102.621 467,83.366 
		472.988,83.366 472.988,95.568 479.695,95.568 479.695,84.062 	"/>
	<path clip-path="url(#SVGID_2_)" fill="#FFFFFF" d="M491,70.655l8.289,2.18v7.331L467,70.608v-9.233l32.289-9.744v7.609L491,61.653
		V70.655z M485.54,62.72l-6.852,1.949c-1.916,0.51-4.358,1.067-6.228,1.531v0.139c1.917,0.418,4.358,0.929,6.228,1.392l6.852,1.903
		V62.72z"/>
	<path clip-path="url(#SVGID_2_)" fill="none" stroke="#FFFFFF" stroke-width="4.374" stroke-miterlimit="10" d="M491,70.655
		l8.289,2.18v7.331L467,70.608v-9.233l32.289-9.744v7.609L491,61.653V70.655z M485.54,62.72l-6.852,1.949
		c-1.916,0.51-4.358,1.067-6.228,1.531v0.139c1.917,0.418,4.358,0.929,6.228,1.392l6.852,1.903V62.72z"/>
	<path clip-path="url(#SVGID_2_)" fill="#FFFFFF" d="M486.928,21.011c-3.879,0.138-8.525,0.277-13.269,0.277v0.094
		c4.119,1.02,8.719,2.32,12.502,3.526l12.599,3.804v5.522l-12.453,3.341c-3.831,1.02-8.384,2.041-12.647,2.829v0.093
		c4.359,0.14,9.341,0.326,13.365,0.511l12.264,0.603v6.543l-32.289-1.996V36.74l10.827-3.064c3.69-1.019,7.713-1.948,11.499-2.643
		v-0.186c-3.738-0.836-7.954-1.902-11.593-2.969l-10.733-3.296v-9.279l32.289-1.67V20.5L486.928,21.011z"/>
	<path clip-path="url(#SVGID_2_)" fill="none" stroke="#FFFFFF" stroke-width="4.374" stroke-miterlimit="10" d="M486.928,21.011
		c-3.879,0.138-8.525,0.277-13.269,0.277v0.094c4.119,1.02,8.719,2.32,12.502,3.526l12.599,3.804v5.522l-12.453,3.341
		c-3.831,1.02-8.384,2.041-12.647,2.829v0.093c4.359,0.14,9.341,0.326,13.365,0.511l12.264,0.603v6.543l-32.289-1.996V36.74
		l10.827-3.064c3.69-1.019,7.713-1.948,11.499-2.643v-0.186c-3.738-0.836-7.954-1.902-11.593-2.969l-10.733-3.296v-9.279
		l32.289-1.67V20.5L486.928,21.011z"/>
	<polygon clip-path="url(#SVGID_2_)" fill="#0078AE" points="473.133,122.013 473.133,130.458 466.999,130.458 466.999,106.422 
		473.133,106.422 473.133,114.96 499.288,114.96 499.288,122.013 	"/>
	<polygon clip-path="url(#SVGID_2_)" fill="#0078AE" points="485.636,84.062 485.636,95.568 493.299,95.568 493.299,82.715 
		499.289,82.715 499.289,102.621 467,102.621 467,83.366 472.988,83.366 472.988,95.568 479.695,95.568 479.695,84.062 	"/>
	<path clip-path="url(#SVGID_2_)" fill="#0078AE" d="M491,70.655l8.289,2.18v7.331L467,70.608v-9.233l32.289-9.744v7.609L491,61.653
		V70.655z M485.54,62.72l-6.852,1.949c-1.916,0.51-4.358,1.067-6.228,1.531v0.139c1.917,0.418,4.358,0.929,6.228,1.392l6.852,1.903
		V62.72z"/>
	<path clip-path="url(#SVGID_2_)" fill="#0078AE" d="M486.928,21.011c-3.879,0.138-8.525,0.277-13.269,0.277v0.094
		c4.119,1.02,8.719,2.32,12.502,3.526l12.599,3.804v5.522l-12.453,3.341c-3.831,1.02-8.384,2.041-12.647,2.829v0.093
		c4.359,0.14,9.341,0.326,13.365,0.511l12.264,0.603v6.543l-32.289-1.996V36.74l10.827-3.064c3.69-1.019,7.713-1.948,11.499-2.643
		v-0.186c-3.738-0.836-7.954-1.902-11.593-2.969l-10.733-3.296v-9.279l32.289-1.67V20.5L486.928,21.011z"/>
	<path clip-path="url(#SVGID_2_)" fill="#7E8083" d="M223.605,135.297v14.466c0,5.425,2.415,7.739,5.658,7.739
		c3.568,0,5.911-2.387,5.911-7.739v-14.466h3.171v14.247c0,7.487-3.928,10.525-9.19,10.525c-4.973,0-8.721-2.821-8.721-10.416
		v-14.356H223.605z"/>
	<path clip-path="url(#SVGID_2_)" fill="#7E8083" d="M241.515,146.905c0-1.845-0.035-3.292-0.144-4.736h2.811l0.18,2.892h0.072
		c0.864-1.627,2.883-3.254,5.766-3.254c2.415,0,6.162,1.447,6.162,7.45v10.416h-3.171v-10.091c0-2.819-1.046-5.172-4.036-5.172
		c-2.054,0-3.675,1.482-4.253,3.255c-0.144,0.397-0.215,0.94-0.215,1.482v10.525h-3.172V146.905z"/>
	<path clip-path="url(#SVGID_2_)" fill="#7E8083" d="M259.352,142.17h3.171v17.501h-3.171V142.17z M262.884,137.251
		c0,1.084-0.757,1.952-2.019,1.952c-1.153,0-1.91-0.868-1.91-1.952c0-1.086,0.794-1.989,1.983-1.989
		C262.091,135.262,262.884,136.128,262.884,137.251"/>
	<path clip-path="url(#SVGID_2_)" fill="#7E8083" d="M270.161,137.973v4.195h4.541v2.423h-4.541v9.439
		c0,2.17,0.613,3.399,2.378,3.399c0.866,0,1.37-0.073,1.84-0.217l0.144,2.423c-0.613,0.217-1.586,0.434-2.812,0.434
		c-1.476,0-2.665-0.507-3.423-1.337c-0.864-0.977-1.226-2.532-1.226-4.595v-9.547h-2.702v-2.423h2.702v-3.255L270.161,137.973z"/>
	<path clip-path="url(#SVGID_2_)" fill="#7E8083" d="M277.657,151.498c0.072,4.304,2.773,6.075,5.981,6.075
		c2.271,0,3.677-0.396,4.83-0.904l0.577,2.279c-1.117,0.507-3.063,1.122-5.838,1.122c-5.371,0-8.577-3.58-8.577-8.862
		c0-5.279,3.099-9.401,8.18-9.401c5.73,0,7.208,4.99,7.208,8.209c0,0.651-0.038,1.123-0.108,1.482H277.657z M286.955,149.22
		c0.037-1.988-0.83-5.136-4.397-5.136c-3.243,0-4.612,2.93-4.865,5.136H286.955z"/>
	<path clip-path="url(#SVGID_2_)" fill="#7E8083" d="M306.81,133.994v21.156c0,1.556,0.072,3.327,0.145,4.521h-2.812l-0.145-3.037
		h-0.106c-0.938,1.953-3.027,3.436-5.875,3.436c-4.217,0-7.496-3.58-7.496-8.896c-0.036-5.823,3.604-9.366,7.82-9.366
		c2.701,0,4.47,1.266,5.261,2.641h0.073v-10.453H306.81z M303.675,149.292c0-0.398-0.036-0.94-0.144-1.339
		c-0.47-1.988-2.2-3.652-4.578-3.652c-3.279,0-5.225,2.895-5.225,6.729c0,3.543,1.766,6.473,5.154,6.473
		c2.125,0,4.07-1.447,4.648-3.798c0.107-0.435,0.144-0.867,0.144-1.374V149.292z"/>
	<path clip-path="url(#SVGID_2_)" fill="#7E8083" d="M318.952,137.251c0,1.084-0.757,1.952-2.02,1.952
		c-1.151,0-1.909-0.868-1.909-1.952c0-1.086,0.794-1.989,1.982-1.989C318.159,135.262,318.952,136.128,318.952,137.251
		 M315.421,142.17h3.17v17.501h-3.17V142.17z"/>
	<path clip-path="url(#SVGID_2_)" fill="#7E8083" d="M321.69,146.905c0-1.845-0.037-3.292-0.145-4.736h2.812l0.179,2.892h0.072
		c0.866-1.627,2.882-3.254,5.768-3.254c2.413,0,6.161,1.447,6.161,7.45v10.416h-3.171v-10.091c0-2.819-1.046-5.172-4.036-5.172
		c-2.055,0-3.677,1.482-4.253,3.255c-0.144,0.397-0.217,0.94-0.217,1.482v10.525h-3.17V146.905z"/>
	<path clip-path="url(#SVGID_2_)" fill="#7E8083" d="M374.372,151.498c0.071,4.304,2.774,6.075,5.981,6.075
		c2.271,0,3.676-0.396,4.829-0.904l0.578,2.279c-1.119,0.507-3.064,1.122-5.839,1.122c-5.37,0-8.577-3.58-8.577-8.862
		c0-5.279,3.099-9.401,8.182-9.401c5.729,0,7.206,4.99,7.206,8.209c0,0.651-0.036,1.123-0.108,1.482H374.372z M383.67,149.22
		c0.035-1.988-0.829-5.136-4.396-5.136c-3.243,0-4.613,2.93-4.865,5.136H383.67z"/>
	<path clip-path="url(#SVGID_2_)" fill="#7E8083" d="M399.02,135.297h3.171v16.309c0,6.477-3.171,8.464-7.353,8.464
		c-1.188,0-2.595-0.253-3.349-0.579l0.43-2.567c0.649,0.254,1.585,0.471,2.668,0.471c2.811,0,4.433-1.268,4.433-6.039V135.297z"/>
	<path clip-path="url(#SVGID_2_)" fill="#7E8083" d="M420.929,150.776c0,6.471-4.504,9.293-8.686,9.293
		c-4.684,0-8.359-3.472-8.359-9.005c0-5.822,3.855-9.258,8.648-9.258C417.54,141.807,420.929,145.459,420.929,150.776
		 M407.127,150.956c0,3.834,2.161,6.727,5.262,6.727c3.027,0,5.297-2.857,5.297-6.8c0-2.965-1.479-6.688-5.227-6.688
		C408.748,144.194,407.127,147.665,407.127,150.956"/>
	<path clip-path="url(#SVGID_2_)" fill="#7E8083" d="M437.36,154.861c0,1.845,0.037,3.436,0.144,4.811h-2.811l-0.181-2.858h-0.07
		c-0.794,1.411-2.668,3.256-5.767,3.256c-2.739,0-6.019-1.555-6.019-7.667v-10.233h3.171v9.655c0,3.326,1.045,5.604,3.893,5.604
		c2.125,0,3.604-1.481,4.18-2.929c0.181-0.434,0.288-1.014,0.288-1.628v-10.703h3.172V154.861z"/>
	<path clip-path="url(#SVGID_2_)" fill="#7E8083" d="M440.458,147.629c0-2.062-0.035-3.833-0.145-5.46h2.775l0.145,3.472h0.108
		c0.794-2.353,2.738-3.834,4.863-3.834c0.326,0,0.579,0.036,0.866,0.072v3c-0.324-0.069-0.649-0.069-1.08-0.069
		c-2.235,0-3.82,1.663-4.254,4.049c-0.071,0.434-0.108,0.977-0.108,1.482v9.33h-3.171V147.629z"/>
	<path clip-path="url(#SVGID_2_)" fill="#7E8083" d="M450.944,146.905c0-1.845-0.036-3.292-0.145-4.736h2.812l0.18,2.892h0.071
		c0.865-1.627,2.884-3.254,5.767-3.254c2.414,0,6.162,1.447,6.162,7.45v10.416h-3.17v-10.091c0-2.819-1.046-5.172-4.038-5.172
		c-2.054,0-3.675,1.482-4.251,3.255c-0.145,0.397-0.217,0.94-0.217,1.482v10.525h-3.171V146.905z"/>
	<path clip-path="url(#SVGID_2_)" fill="#7E8083" d="M470.547,151.498c0.072,4.304,2.776,6.075,5.983,6.075
		c2.269,0,3.674-0.396,4.827-0.904l0.577,2.279c-1.119,0.507-3.063,1.122-5.838,1.122c-5.37,0-8.577-3.58-8.577-8.862
		c0-5.279,3.1-9.401,8.182-9.401c5.729,0,7.206,4.99,7.206,8.209c0,0.651-0.035,1.123-0.108,1.482H470.547z M479.845,149.22
		c0.035-1.988-0.829-5.136-4.396-5.136c-3.243,0-4.612,2.93-4.865,5.136H479.845z"/>
	<path clip-path="url(#SVGID_2_)" fill="#7E8083" d="M485.827,142.169l3.782,10.343c0.432,1.157,0.865,2.531,1.153,3.58h0.071
		c0.324-1.049,0.687-2.387,1.118-3.653l3.458-10.27h3.352l-4.756,12.476c-2.27,6.003-3.819,9.042-5.981,10.957
		c-1.586,1.339-3.101,1.88-3.893,2.026l-0.793-2.639c0.793-0.255,1.837-0.762,2.777-1.557c0.862-0.687,1.908-1.918,2.664-3.545
		c0.145-0.325,0.253-0.578,0.253-0.759s-0.073-0.435-0.253-0.832l-6.415-16.128H485.827z"/>
	<path clip-path="url(#SVGID_2_)" fill="#7E8083" d="M348.823,137.973v4.195h4.54v2.423h-4.54v9.439c0,2.17,0.613,3.399,2.379,3.399
		c0.866,0,1.369-0.073,1.837-0.217l0.146,2.423c-0.613,0.217-1.587,0.434-2.812,0.434c-1.477,0-2.666-0.507-3.424-1.337
		c-0.863-0.977-1.225-2.532-1.225-4.595v-9.547h-2.703v-2.423h2.703v-3.255L348.823,137.973z"/>
	<path clip-path="url(#SVGID_2_)" fill="#7E8083" d="M354.77,133.994h3.171v10.958h0.072c0.505-0.903,1.298-1.735,2.271-2.277
		c0.937-0.543,2.054-0.868,3.243-0.868c2.342,0,6.091,1.447,6.091,7.449v10.416h-3.171v-10.054c0-2.821-1.045-5.171-4.037-5.171
		c-2.055,0-3.64,1.445-4.252,3.146c-0.181,0.47-0.217,0.94-0.217,1.519v10.561h-3.171V133.994z"/>
	<polygon clip-path="url(#SVGID_2_)" fill="#0078AE" points="221.867,167.04 221.867,173.245 229.04,173.245 229.04,167.04 
		230.976,167.04 230.976,181.87 229.04,181.87 229.04,174.917 221.867,174.917 221.867,181.87 219.952,181.87 219.952,167.04 	"/>
	<path clip-path="url(#SVGID_2_)" fill="#0078AE" d="M243.867,176.457c0,3.938-2.727,5.655-5.303,5.655
		c-2.881,0-5.104-2.112-5.104-5.479c0-3.564,2.332-5.655,5.281-5.655C241.8,170.979,243.867,173.201,243.867,176.457
		 M235.418,176.567c0,2.332,1.343,4.093,3.235,4.093c1.848,0,3.235-1.738,3.235-4.137c0-1.805-0.903-4.093-3.191-4.093
		C236.408,172.431,235.418,174.543,235.418,176.567"/>
	<path clip-path="url(#SVGID_2_)" fill="#0078AE" d="M246.309,174.697c0-1.364-0.044-2.465-0.088-3.476h1.738l0.088,1.825h0.044
		c0.792-1.298,2.046-2.068,3.784-2.068c2.575,0,4.511,2.179,4.511,5.413c0,3.828-2.332,5.721-4.841,5.721
		c-1.408,0-2.64-0.616-3.278-1.673h-0.044v5.787h-1.914V174.697z M248.223,177.535c0,0.286,0.044,0.551,0.088,0.792
		c0.352,1.343,1.518,2.267,2.904,2.267c2.047,0,3.235-1.672,3.235-4.114c0-2.135-1.123-3.961-3.168-3.961
		c-1.321,0-2.553,0.946-2.927,2.398c-0.066,0.242-0.132,0.528-0.132,0.792V177.535z"/>
	<path clip-path="url(#SVGID_2_)" fill="#0078AE" d="M259.904,176.897c0.044,2.618,1.716,3.696,3.652,3.696
		c1.386,0,2.223-0.242,2.948-0.55l0.33,1.386c-0.682,0.309-1.848,0.66-3.542,0.66c-3.279,0-5.237-2.156-5.237-5.368
		c0-3.213,1.892-5.743,4.995-5.743c3.477,0,4.4,3.059,4.4,5.017c0,0.396-0.044,0.703-0.066,0.902H259.904z M265.581,175.511
		c0.021-1.231-0.506-3.146-2.685-3.146c-1.958,0-2.816,1.805-2.97,3.146H265.581z"/>
	<polygon clip-path="url(#SVGID_2_)" fill="#0078AE" points="272.004,168.668 267.493,168.668 267.493,167.04 278.474,167.04 
		278.474,168.668 273.94,168.668 273.94,181.87 272.004,181.87 	"/>
	<path clip-path="url(#SVGID_2_)" fill="#0078AE" d="M279.572,176.897c0.044,2.618,1.716,3.696,3.652,3.696
		c1.386,0,2.223-0.242,2.948-0.55l0.33,1.386c-0.682,0.309-1.848,0.66-3.542,0.66c-3.279,0-5.237-2.156-5.237-5.368
		c0-3.213,1.893-5.743,4.995-5.743c3.477,0,4.4,3.059,4.4,5.017c0,0.396-0.044,0.703-0.066,0.902H279.572z M285.249,175.511
		c0.021-1.231-0.506-3.146-2.685-3.146c-1.958,0-2.816,1.805-2.971,3.146H285.249z"/>
	<path clip-path="url(#SVGID_2_)" fill="#0078AE" d="M295.412,181.87l-0.154-1.342h-0.065c-0.594,0.836-1.738,1.584-3.257,1.584
		c-2.156,0-3.256-1.519-3.256-3.059c0-2.574,2.288-3.982,6.402-3.961v-0.22c0-0.88-0.242-2.464-2.42-2.464
		c-0.99,0-2.024,0.308-2.772,0.792l-0.44-1.276c0.88-0.572,2.156-0.946,3.499-0.946c3.256,0,4.048,2.223,4.048,4.356v3.982
		c0,0.925,0.044,1.826,0.177,2.553H295.412z M295.126,176.436c-2.112-0.044-4.511,0.33-4.511,2.398c0,1.254,0.837,1.848,1.826,1.848
		c1.387,0,2.267-0.88,2.575-1.782c0.065-0.197,0.109-0.418,0.109-0.616V176.436z"/>
	<path clip-path="url(#SVGID_2_)" fill="#0078AE" d="M300.119,174.103c0-1.1-0.022-2.002-0.088-2.882h1.693l0.089,1.716h0.065
		c0.594-1.012,1.585-1.958,3.344-1.958c1.453,0,2.554,0.88,3.016,2.135h0.044c0.33-0.595,0.748-1.057,1.188-1.387
		c0.638-0.484,1.342-0.748,2.354-0.748c1.408,0,3.499,0.924,3.499,4.621v6.271h-1.893v-6.029c0-2.046-0.749-3.278-2.311-3.278
		c-1.1,0-1.958,0.814-2.288,1.761c-0.088,0.264-0.154,0.616-0.154,0.967v6.58h-1.892v-6.381c0-1.694-0.748-2.927-2.223-2.927
		c-1.21,0-2.091,0.969-2.398,1.936c-0.109,0.287-0.154,0.617-0.154,0.947v6.425h-1.892V174.103z"/>
	<path clip-path="url(#SVGID_2_)" fill="#0078AE" d="M320.932,177.205l-1.54,4.665h-1.98l5.039-14.83h2.311l5.061,14.83h-2.048
		l-1.583-4.665H320.932z M325.795,175.709l-1.452-4.269c-0.33-0.968-0.551-1.848-0.771-2.706h-0.044
		c-0.22,0.88-0.463,1.782-0.748,2.685l-1.452,4.29H325.795z"/>
	<polygon clip-path="url(#SVGID_2_)" fill="#0078AE" points="330.985,180.748 339.215,168.712 339.215,168.646 331.689,168.646 
		331.689,167.04 341.701,167.04 341.701,168.206 333.516,180.198 333.516,180.264 341.811,180.264 341.811,181.87 330.985,181.87 	
		"/>
	<path clip-path="url(#SVGID_2_)" fill="#0078AE" d="M343.636,180.726c0-0.813,0.55-1.386,1.32-1.386
		c0.77,0,1.298,0.573,1.298,1.386c0,0.793-0.506,1.387-1.32,1.387C344.163,182.112,343.636,181.519,343.636,180.726"/>
	<path clip-path="url(#SVGID_2_)" fill="#0078AE" d="M358.288,176.457c0,3.938-2.728,5.655-5.303,5.655
		c-2.882,0-5.104-2.112-5.104-5.479c0-3.564,2.333-5.655,5.281-5.655C356.221,170.979,358.288,173.201,358.288,176.457
		 M349.839,176.567c0,2.332,1.343,4.093,3.235,4.093c1.848,0,3.234-1.738,3.234-4.137c0-1.805-0.902-4.093-3.19-4.093
		C350.829,172.431,349.839,174.543,349.839,176.567"/>
	<path clip-path="url(#SVGID_2_)" fill="#0078AE" d="M360.729,174.543c0-1.254-0.022-2.332-0.088-3.322h1.693l0.066,2.09h0.088
		c0.484-1.43,1.65-2.332,2.948-2.332c0.221,0,0.375,0.022,0.551,0.066v1.826c-0.198-0.044-0.396-0.066-0.66-0.066
		c-1.364,0-2.332,1.034-2.597,2.486c-0.044,0.265-0.088,0.572-0.088,0.902v5.677h-1.914V174.543z"/>
	<path clip-path="url(#SVGID_2_)" fill="#0078AE" d="M376.922,171.221c-0.044,0.77-0.088,1.628-0.088,2.927v6.183
		c0,2.442-0.483,3.938-1.519,4.863c-1.033,0.968-2.53,1.275-3.872,1.275c-1.276,0-2.685-0.308-3.543-0.88l0.484-1.475
		c0.704,0.44,1.805,0.836,3.125,0.836c1.979,0,3.432-1.034,3.432-3.718v-1.188h-0.044c-0.594,0.99-1.738,1.782-3.388,1.782
		c-2.641,0-4.533-2.244-4.533-5.192c0-3.609,2.354-5.655,4.797-5.655c1.849,0,2.86,0.968,3.322,1.849h0.044l0.088-1.606H376.922z
		 M374.92,175.423c0-0.33-0.022-0.616-0.11-0.88c-0.352-1.122-1.298-2.046-2.706-2.046c-1.849,0-3.169,1.562-3.169,4.026
		c0,2.09,1.057,3.828,3.146,3.828c1.188,0,2.267-0.748,2.685-1.979c0.11-0.33,0.154-0.704,0.154-1.034V175.423z"/>
</g>
</svg>
